<svg xmlns="http://www.w3.org/2000/svg" version="1" width="792" height="450" viewBox="0 0 792 450"><path fill="#e44f26" d="M46.323 84.049h297.45l-27.098 303.57-121.809 33.77-121.473-33.72z"/><path fill="#f1662a" d="M293.475 368.29l23.158-259.416H195.048v286.704z"/><path fill="#ebebeb" d="M145.773 221.483l-3.404-38.132h52.68v-37.24h-93.377l.892 9.992 9.152 102.616h83.331v-37.236zm49.112 96.754l-41.472-11.2-2.652-29.697h-37.38l5.217 58.467 76.278 21.176.172-.048V318.19z"/><path d="M73.998 1.538h18.924v18.696h17.311V1.538h18.925v56.618h-18.924V39.198h-17.31v18.958H73.998V1.538zm80.044 18.775h-16.66V1.538h52.252v18.775h-16.667v37.843h-18.924V20.313zm43.885-18.775h19.733l12.137 19.894 12.127-19.894h19.74v56.618h-18.847V30.093l-13.02 20.13h-.326l-13.028-20.13v28.063h-18.517V1.538zm73.154 0h18.93V39.44h26.611v18.714H271.08V1.538z" fill="#010101"/><path fill="#fff" d="M194.92 258.719h45.853l-4.322 48.294-41.532 11.21v38.742l76.34-21.158.56-6.29 8.75-98.035.908-10H194.92zm0-89.479v14.111h89.946l.747-8.37 1.696-18.878.891-9.991h-93.28z"/><path d="M683.174 17.084h-24.688l25.674 27.859v13.26h-52.882V42.679h25.67l-25.67-27.86V1.538h51.896v15.546zm-62.378 0h-24.688l25.673 27.859v13.26H568.9V42.679h25.672L568.9 14.818V1.538h51.897v15.546zm-61.768.63h-26.64v24.314h26.64v16.176h-45.574V1.538h45.574v16.177z" fill="#131313"/><path fill="#1572b6" d="M450.081 84.073h297.45l-27.096 303.57-121.81 33.77-121.473-33.72z"/><path fill="#33a9dc" d="M697.235 368.314l23.157-259.415H598.808v286.703z"/><path fill="#fff" d="M648.082 218.899l3.403-38.132h-52.678v-37.24h93.375l-.893 9.992-9.152 102.616h-83.33v-37.236z"/><path fill="#ebebeb" d="M598.867 315.653l-41.472-11.2-2.652-29.697h-37.379l5.216 58.467 76.278 21.176.172-.048v-38.744z"/><path fill="#fff" d="M640.433 304.429l-41.532 11.21v38.742l76.34-21.158.56-6.29 6.477-72.374h-37.36z"/><path fill="#ebebeb" d="M598.936 166.656v14.111H508.99l-.747-8.37-1.697-18.878-.89-9.991h93.281zm-.129 75.376v14.109H557.86l-.746-8.37-1.698-18.877-.89-9.991h44.281z"/></svg>