<?xml version="1.0" encoding="UTF-8" standalone="no"?>
<!-- Generator: Adobe Illustrator 15.1.0, SVG Export Plug-In . SVG Version: 6.00 Build 0)  -->

<svg
   xmlns:dc="http://purl.org/dc/elements/1.1/"
   xmlns:cc="http://creativecommons.org/ns#"
   xmlns:rdf="http://www.w3.org/1999/02/22-rdf-syntax-ns#"
   xmlns:svg="http://www.w3.org/2000/svg"
   xmlns="http://www.w3.org/2000/svg"
   xmlns:sodipodi="http://sodipodi.sourceforge.net/DTD/sodipodi-0.dtd"
   xmlns:inkscape="http://www.inkscape.org/namespaces/inkscape"
   version="1.0"
   id="Layer_1"
   x="0px"
   y="0px"
   width="792px"
   height="450px"
   viewBox="0 0 792 450"
   enable-background="new 0 0 792 450"
   xml:space="preserve"
   inkscape:version="0.91 r13725"
   sodipodi:docname="HTML5CSS3Logos1.svg"><metadata
   id="metadata3383"><rdf:RDF><cc:Work
       rdf:about=""><dc:format>image/svg+xml</dc:format><dc:type
         rdf:resource="http://purl.org/dc/dcmitype/StillImage" /><dc:title></dc:title></cc:Work></rdf:RDF></metadata><defs
   id="defs3381" /><sodipodi:namedview
   pagecolor="#ffffff"
   bordercolor="#666666"
   borderopacity="1"
   objecttolerance="10"
   gridtolerance="10"
   guidetolerance="10"
   inkscape:pageopacity="0"
   inkscape:pageshadow="2"
   inkscape:window-width="1440"
   inkscape:window-height="838"
   id="namedview3379"
   showgrid="false"
   inkscape:zoom="1.507588"
   inkscape:cx="356.31176"
   inkscape:cy="453.60203"
   inkscape:window-x="-8"
   inkscape:window-y="-8"
   inkscape:window-maximized="1"
   inkscape:current-layer="g3337" />
<g
   id="g3337">
	<polygon
   points="48.313,163.646 345.763,163.646 318.665,467.217 196.856,500.986 75.383,467.266 "
   id="polygon3339"
   transform="translate(-1.9899336,-79.597346)"
   style="fill:#e44f26" />
	<polygon
   points="295.465,447.887 318.623,188.471 197.038,188.471 197.038,475.175 "
   id="polygon3341"
   transform="translate(-1.9899336,-79.597346)"
   style="fill:#f1662a" />
	<polygon
   points="147.763,301.08 144.359,262.948 197.038,262.948 197.038,225.709 196.909,225.709 103.663,225.709 104.555,235.7 113.707,338.316 197.038,338.316 197.038,301.08 "
   id="polygon3343"
   transform="translate(-1.9899336,-79.597346)"
   style="fill:#ebebeb" />
	<polygon
   points="196.875,397.834 155.403,386.635 152.751,356.937 132.6,356.937 115.371,356.937 120.588,415.404 196.866,436.58 197.038,436.532 197.038,397.788 "
   id="polygon3345"
   transform="translate(-1.9899336,-79.597346)"
   style="fill:#ebebeb" />
	<path
   d="m 73.998066,1.537654 18.924,0 0,18.696 17.311004,0 0,-18.696 18.925,0 0,56.618 -18.924,0 0,-18.958 -17.310004,0 0,18.958 -18.926,0 0,-56.618 0,0 z"
   id="path3347"
   inkscape:connector-curvature="0"
   style="fill:#010101" />
	<path
   d="m 154.04207,20.312654 -16.66,0 0,-18.775 52.252,0 0,18.775 -16.667,0 0,37.843 -18.924,0 0,-37.843 -0.001,0 z"
   id="path3349"
   inkscape:connector-curvature="0"
   style="fill:#010101" />
	<path
   d="m 197.92707,1.537654 19.733,0 12.137,19.894 12.127,-19.894 19.739,0 0,56.618 -18.846,0 0,-28.063 -13.021,20.13 -0.325,0 -13.028,-20.13 0,28.063 -18.517,0 0,-56.618 z"
   id="path3351"
   inkscape:connector-curvature="0"
   style="fill:#010101" />
	<path
   d="m 271.08107,1.537654 18.929,0 0,37.903 26.612,0 0,18.714 -45.542,0 0,-56.617 z"
   id="path3353"
   inkscape:connector-curvature="0"
   style="fill:#010101" />
	<polygon
   points="196.909,338.316 242.763,338.316 238.441,386.61 196.909,397.82 196.909,436.562 273.249,415.404 273.808,409.114 282.559,311.079 283.467,301.08 273.433,301.08 196.909,301.08 "
   id="polygon3355"
   transform="translate(-1.9899336,-79.597346)"
   style="fill:#ffffff" />
	<polygon
   points="196.909,248.837 196.909,262.856 196.909,262.948 286.736,262.948 286.736,262.948 286.856,262.948 287.603,254.578 289.299,235.7 290.19,225.709 196.909,225.709 "
   id="polygon3357"
   transform="translate(-1.9899336,-79.597346)"
   style="fill:#ffffff" />
</g>
<g
   id="g3359"
   transform="translate(-1.9899336,-79.597346)">
	<path
   d="m 685.164,96.681 -24.688,0 25.674,27.859 0,13.261 -52.882,0 0,-15.526 25.669,0 -25.669,-27.86 0,-13.28 51.896,0 0,15.546 0,0 z m -62.378,0 -24.688,0 25.673,27.859 0,13.261 -52.882,0 0,-15.526 25.672,0 -25.672,-27.86 0,-13.28 51.897,0 0,15.546 z m -61.768,0.631 -26.64,0 0,24.313 26.64,0 0,16.176 -45.574,0 0,-56.666 45.574,0 0,16.177 z"
   id="path3361"
   inkscape:connector-curvature="0"
   style="fill:#131313" />
</g>
<polygon
   points="452.071,163.67 749.521,163.67 722.425,467.241 600.614,501.011 479.142,467.29 "
   id="polygon3363"
   transform="translate(-1.9899336,-79.597346)"
   style="fill:#1572b6" />
<polygon
   points="699.225,447.911 722.382,188.496 600.798,188.496 600.798,475.199 "
   id="polygon3365"
   transform="translate(-1.9899336,-79.597346)"
   style="fill:#33a9dc" />
<g
   id="g3367"
   transform="translate(-1.9899336,-79.597346)">
	<polygon
   points="650.072,298.496 653.475,260.364 600.797,260.364 600.797,223.125 600.926,223.125 694.172,223.125 693.279,233.116 684.127,335.732 600.797,335.732 600.797,298.496 "
   id="polygon3369"
   style="fill:#ffffff" />
	<polygon
   points="600.857,395.25 559.385,384.051 556.733,354.353 536.582,354.353 519.354,354.353 524.57,412.82 600.848,433.996 601.02,433.948 601.02,395.204 "
   id="polygon3371"
   style="fill:#ebebeb" />
	<polygon
   points="642.423,384.026 600.891,395.236 600.891,433.978 677.23,412.82 677.79,406.53 684.268,334.156 646.907,334.156 "
   id="polygon3373"
   style="fill:#ffffff" />
	<polygon
   points="600.926,246.253 600.926,260.272 600.926,260.364 511.098,260.364 511.098,260.364 510.979,260.364 510.232,251.994 508.535,233.116 507.645,223.125 600.926,223.125 "
   id="polygon3375"
   style="fill:#ebebeb" />
	<polygon
   points="600.797,321.629 600.797,335.646 600.797,335.738 559.969,335.738 559.969,335.738 559.85,335.738 559.104,327.369 557.406,308.491 556.516,298.5 600.797,298.5 "
   id="polygon3377"
   style="fill:#ebebeb" />
</g>
</svg>